<svg width="973" height="457" fill="none" xmlns="http://www.w3.org/2000/svg"><g clip-path="url(#a)"><rect width="973" height="457" rx="20" fill="#0E0E0E"/><g opacity=".8"><g opacity=".1" fill="#D9D9D9"><circle cx="42.3" cy="58.4" r="1"/><circle cx="110.6" cy="58.4" r="1"/><circle cx="178.9" cy="58.4" r="1"/><circle cx="247.2" cy="58.4" r="1"/><circle cx="315.5" cy="58.4" r="1"/><circle cx="383.8" cy="58.4" r="1"/><circle cx="452.1" cy="58.4" r="1"/><circle cx="520.4" cy="58.4" r="1"/><circle cx="588.7" cy="58.4" r="1"/><circle cx="657" cy="58.4" r="1"/><circle cx="725.3" cy="58.4" r="1"/><circle cx="793.6" cy="58.4" r="1"/><circle cx="861.9" cy="58.4" r="1"/><circle cx="930.3" cy="58.4" r="1"/><circle cx="178.9" cy="58.4" r="1"/><circle cx="247.2" cy="58.4" r="1"/><circle cx="315.5" cy="58.4" r="1"/><circle cx="383.8" cy="58.4" r="1"/><circle cx="452.1" cy="58.4" r="1"/><circle cx="520.4" cy="58.4" r="1"/><circle cx="588.7" cy="58.4" r="1"/><circle cx="657" cy="58.4" r="1"/><circle cx="725.3" cy="58.4" r="1"/><circle cx="793.6" cy="58.4" r="1"/><circle cx="861.9" cy="58.4" r="1"/><circle cx="930.3" cy="58.4" r="1"/><circle cx="42.3" cy="129.6" r="1"/><circle cx="110.6" cy="129.6" r="1"/><circle cx="178.9" cy="129.6" r="1"/><circle cx="247.2" cy="129.6" r="1"/><circle cx="315.5" cy="129.6" r="1"/><circle cx="383.8" cy="129.6" r="1"/><circle cx="452.1" cy="129.6" r="1"/><circle cx="520.4" cy="129.6" r="1"/><circle cx="588.7" cy="129.6" r="1"/><circle cx="657" cy="129.6" r="1"/><circle cx="725.3" cy="129.6" r="1"/><circle cx="793.6" cy="129.6" r="1"/><circle cx="861.9" cy="129.6" r="1"/><circle cx="930.3" cy="129.6" r="1"/><circle cx="178.9" cy="129.6" r="1"/><circle cx="247.2" cy="129.6" r="1"/><circle cx="315.5" cy="129.6" r="1"/><circle cx="383.8" cy="129.6" r="1"/><circle cx="452.1" cy="129.6" r="1"/><circle cx="520.4" cy="129.6" r="1"/><circle cx="588.7" cy="129.6" r="1"/><circle cx="657" cy="129.6" r="1"/><circle cx="725.3" cy="129.6" r="1"/><circle cx="793.6" cy="129.6" r="1"/><circle cx="861.9" cy="129.6" r="1"/><circle cx="930.3" cy="129.6" r="1"/><circle cx="42.3" cy="197.9" r="1"/><circle cx="110.6" cy="197.9" r="1"/><circle cx="178.9" cy="197.9" r="1"/><circle cx="247.2" cy="197.9" r="1"/><circle cx="315.5" cy="197.9" r="1"/><circle cx="383.8" cy="197.9" r="1"/><circle cx="452.1" cy="197.9" r="1"/><circle cx="520.4" cy="197.9" r="1"/><circle cx="588.7" cy="197.9" r="1"/><circle cx="657" cy="197.9" r="1"/><circle cx="725.3" cy="197.9" r="1"/><circle cx="793.6" cy="197.9" r="1"/><circle cx="861.9" cy="197.9" r="1"/><circle cx="930.3" cy="197.9" r="1"/><circle cx="178.9" cy="197.9" r="1"/><circle cx="247.2" cy="197.9" r="1"/><circle cx="315.5" cy="197.9" r="1"/><circle cx="383.8" cy="197.9" r="1"/><circle cx="452.1" cy="197.9" r="1"/><circle cx="520.4" cy="197.9" r="1"/><circle cx="588.7" cy="197.9" r="1"/><circle cx="657" cy="197.9" r="1"/><circle cx="725.3" cy="197.9" r="1"/><circle cx="793.6" cy="197.9" r="1"/><circle cx="861.9" cy="197.9" r="1"/><circle cx="930.3" cy="197.9" r="1"/><circle cx="42.3" cy="268.2" r="1"/><circle cx="110.6" cy="268.2" r="1"/><circle cx="178.9" cy="268.2" r="1"/><circle cx="247.2" cy="268.2" r="1"/><circle cx="315.5" cy="268.2" r="1"/><circle cx="383.8" cy="268.2" r="1"/><circle cx="452.1" cy="268.2" r="1"/><circle cx="520.4" cy="268.2" r="1"/><circle cx="588.7" cy="268.2" r="1"/><circle cx="657" cy="268.2" r="1"/><circle cx="725.3" cy="268.2" r="1"/><circle cx="793.6" cy="268.2" r="1"/><circle cx="861.9" cy="268.2" r="1"/><circle cx="930.3" cy="268.2" r="1"/><circle cx="178.9" cy="268.2" r="1"/><circle cx="247.2" cy="268.2" r="1"/><circle cx="315.5" cy="268.2" r="1"/><circle cx="383.8" cy="268.2" r="1"/><circle cx="452.1" cy="268.2" r="1"/><circle cx="520.4" cy="268.2" r="1"/><circle cx="588.7" cy="268.2" r="1"/><circle cx="657" cy="268.2" r="1"/><circle cx="725.3" cy="268.2" r="1"/><circle cx="793.6" cy="268.2" r="1"/><circle cx="861.9" cy="268.2" r="1"/><circle cx="930.3" cy="268.2" r="1"/><circle cx="42.3" cy="339.5" r="1"/><circle cx="110.6" cy="339.5" r="1"/><circle cx="178.9" cy="339.5" r="1"/><circle cx="247.2" cy="339.5" r="1"/><circle cx="315.5" cy="339.5" r="1"/><circle cx="383.8" cy="339.5" r="1"/><circle cx="452.1" cy="339.5" r="1"/><circle cx="520.4" cy="339.5" r="1"/><circle cx="588.7" cy="339.5" r="1"/><circle cx="657" cy="339.5" r="1"/><circle cx="725.3" cy="339.5" r="1"/><circle cx="793.6" cy="339.5" r="1"/><circle cx="861.9" cy="339.5" r="1"/><circle cx="930.3" cy="339.5" r="1"/><circle cx="178.9" cy="339.5" r="1"/><circle cx="247.2" cy="339.5" r="1"/><circle cx="315.5" cy="339.5" r="1"/><circle cx="383.8" cy="339.5" r="1"/><circle cx="452.1" cy="339.5" r="1"/><circle cx="520.4" cy="339.5" r="1"/><circle cx="588.7" cy="339.5" r="1"/><circle cx="657" cy="339.5" r="1"/><circle cx="725.3" cy="339.5" r="1"/><circle cx="793.6" cy="339.5" r="1"/><circle cx="861.9" cy="339.5" r="1"/><circle cx="930.3" cy="339.5" r="1"/><circle cx="42.3" cy="407.8" r="1"/><circle cx="110.6" cy="407.8" r="1"/><circle cx="178.9" cy="407.8" r="1"/><circle cx="247.2" cy="407.8" r="1"/><circle cx="315.5" cy="407.8" r="1"/><circle cx="383.8" cy="407.8" r="1"/><circle cx="452.1" cy="407.8" r="1"/><circle cx="520.4" cy="407.8" r="1"/><circle cx="588.7" cy="407.8" r="1"/><circle cx="657" cy="407.8" r="1"/><circle cx="725.3" cy="407.8" r="1"/><circle cx="793.6" cy="407.8" r="1"/><circle cx="861.9" cy="407.8" r="1"/><circle cx="930.3" cy="407.8" r="1"/><circle cx="178.9" cy="407.8" r="1"/><circle cx="247.2" cy="407.8" r="1"/><circle cx="315.5" cy="407.8" r="1"/><circle cx="383.8" cy="407.8" r="1"/><circle cx="452.1" cy="407.8" r="1"/><circle cx="520.4" cy="407.8" r="1"/><circle cx="588.7" cy="407.8" r="1"/><circle cx="657" cy="407.8" r="1"/><circle cx="725.3" cy="407.8" r="1"/><circle cx="793.6" cy="407.8" r="1"/><circle cx="861.9" cy="407.8" r="1"/><circle cx="930.3" cy="407.8" r="1"/></g><path d="M42.3-5v1094.4M110.6-5v1094.4M178.9-5v1094.4M247.2-5v1094.4M315.5-5v1094.4M383.8-5v1094.4M452.1-5v1094.4M520.4-5v1094.4M588.7-5v1094.4M657-5v1094.4M725.3-5v1094.4M793.6-5v1094.4M862-5v1094.4M930.3-5v1094.4m878-1031H-92.4m1900.7 71.2H-92.4M1808.3 198H-92.4m1900.7 70.2H-92.4m1900.7 71.3H-92.4m1900.7 68.3H-92.4" opacity=".1" stroke="#fff" stroke-opacity=".5" stroke-width=".5"/><path d="M7.6 31.6V1126M76 31.6V1126M144.2 31.6V1126M212.5 31.6V1126M280.9 31.6V1126M349.2 31.6V1126M417.5 31.6V1126M485.8 31.6V1126M554 31.6V1126M622.4 31.6V1126M690.7 31.6V1126M759 31.6V1126M827.3 31.6V1126M895.6 31.6V1126M1773.7 95H-127m1900.7 71.3H-127m1900.7 68.3H-127m1900.7 70.2H-127m1900.7 71.3H-127m1900.7 68.3H-127M964 31.6V1126" opacity=".1" stroke="#fff" stroke-opacity=".2" stroke-width=".5"/></g><mask id="b" maskUnits="userSpaceOnUse" x="384.3" y="86" width="204" height="54" fill="#000"><path fill="#fff" d="M384.3 86h204v54h-204z"/><path fill-rule="evenodd" clip-rule="evenodd" d="M391.3 88a5 5 0 0 0-5 5v45h200v-15a10 10 0 1 1 0-20V93a5 5 0 0 0-5-5h-190Z"/></mask><path fill-rule="evenodd" clip-rule="evenodd" d="M391.3 88a5 5 0 0 0-5 5v45h200v-15a10 10 0 1 1 0-20V93a5 5 0 0 0-5-5h-190Z" fill="#2D2D2D"/><path d="M386.3 138h-2v2h2v-2Zm200 0v2h2v-2h-2Zm0-15h2v-2h-2v2Zm0-20v2h2v-2h-2Zm-198-10a3 3 0 0 1 3-3v-4a7 7 0 0 0-7 7h4Zm0 45V93h-4v45h4Zm198-2h-200v4h200v-4Zm-2-13v15h4v-15h-4Zm2-2a8 8 0 0 1-8-8h-4a12 12 0 0 0 12 12v-4Zm-8-8a8 8 0 0 1 8-8v-4a12 12 0 0 0-12 12h4Zm6-20v10h4V93h-4Zm-3-3a3 3 0 0 1 3 3h4a7 7 0 0 0-7-7v4Zm-190 0h190v-4h-190v4Z" fill="#2D2D2D" mask="url(#b)"/><path d="m414.4 109.4.7.2c.2.1.5.3.6.6.2.4.3.9.3 1.5v6.3h-1v-6l-.1-1.4c0-.2-.3-.4-.6-.4l-.9.3-.8.9v6.6h-1v-6l-.2-1.4c0-.2-.2-.4-.6-.4-.3 0-.6.1-.8.3-.3.2-.6.5-.8.9v6.6h-1v-8.4h.8v1l.9-.8c.2-.2.6-.4 1-.4s.7.1 1 .3c.3.1.5.4.6.9l.8-.8c.3-.2.6-.4 1-.4Zm10 7 .1.7c.1.2.3.3.6.3l-.3.8c-.3 0-.6-.2-.9-.4l-.5-.8a3 3 0 0 1-1 .9c-.5.2-1 .3-1.6.3-.8 0-1.5-.3-2-.7a3 3 0 0 1-.7-2c0-.8.4-1.4 1-1.9a6 6 0 0 1 3-.7h1.2v-.8c0-.6-.2-1-.6-1.4-.3-.2-.8-.4-1.5-.4l-1 .1-1.1.4-.3-.8a8.3 8.3 0 0 1 2.6-.6c1 0 1.7.3 2.2.8.5.5.8 1 .8 1.9v4.2Zm-3.4 1a2 2 0 0 0 1.3-.4 3 3 0 0 0 1-.9v-2.4H422c-1 0-1.7.2-2 .5-.5.4-.7.8-.7 1.4 0 .6.2 1 .5 1.3.3.3.7.5 1.3.5Zm13.6.2c-.2.2-.6.3-1 .4l-1 .2c-.9 0-1.6-.3-2-.7-.5-.5-.8-1-.8-1.7v-5.4h-2v-.8h2v-2h1v2h3l-.1.8h-2.9v5.4c0 .5.2.8.4 1.1.3.3.7.4 1.4.4a3.3 3.3 0 0 0 1.6-.4l.4.7Zm4.2-11.5v4.7c.4-.4.8-.8 1.3-1 .5-.2 1-.4 1.5-.4.8 0 1.4.3 1.8.7.4.4.6 1 .6 1.8v6.1h-1v-6.3c0-.5-.2-.8-.4-1-.3-.3-.7-.4-1.3-.4-.3 0-.7 0-1 .2l-.9.6-.6.7v6.2h-1v-11.8l1-.1Zm8.7 13.5-.9-.4 7-14.1.7.4-6.8 14.1Zm15.2-3.3c0 .4 0 .6.2.8.1.2.3.3.5.3l-.2.8c-.3 0-.6-.2-.9-.4l-.5-.8a3 3 0 0 1-1.1.9l-1.5.3c-.8 0-1.5-.3-2-.7a3 3 0 0 1-.7-2c0-.8.4-1.4 1-1.9a6 6 0 0 1 3-.7h1.2v-.8c0-.6-.2-1-.6-1.4a3 3 0 0 0-1.5-.4l-1 .1-1.2.4-.3-.8a8.3 8.3 0 0 1 2.6-.6c1 0 1.8.3 2.3.8.5.5.7 1 .7 1.9v4.2Zm-3.3 1c.4 0 .9 0 1.3-.3a3 3 0 0 0 1-.9v-2.4h-1.4c-1 0-1.7.2-2 .5-.5.4-.7.8-.7 1.4 0 .6.2 1 .5 1.3.2.3.7.5 1.3.5Zm12.3-11.2 1 .1V118h-.9v-1.2a3 3 0 0 1-1.2 1 3 3 0 0 1-1.3.4 3 3 0 0 1-1.8-.6 3 3 0 0 1-1-1.5c-.3-.7-.4-1.4-.4-2.3 0-.8.1-1.6.4-2.2.2-.7.6-1.2 1-1.6.6-.4 1.2-.6 1.9-.6.5 0 1 .1 1.3.3l1 .8v-4.4Zm-2 4.2a2 2 0 0 0-1.9.9c-.4.6-.6 1.5-.6 2.6 0 .8 0 1.4.3 1.9a1.9 1.9 0 0 0 2 1.6c.5 0 1-.2 1.3-.5l1-1v-4.3c-.3-.4-.6-.7-1-.9l-1.2-.3Zm11.6-4.2 1 .1V118h-.9v-1.2a3 3 0 0 1-1.2 1 3 3 0 0 1-1.3.4 3 3 0 0 1-1.8-.6 3 3 0 0 1-1-1.5c-.3-.7-.4-1.4-.4-2.3 0-.8.1-1.6.4-2.2.2-.7.6-1.2 1-1.6.6-.4 1.2-.6 1.9-.6.5 0 1 .1 1.3.3l1 .8v-4.4Zm-2 4.2a2 2 0 0 0-1.9.9c-.4.6-.6 1.5-.6 2.6 0 .8 0 1.4.2 1.9s.5 1 .8 1.2c.3.3.7.4 1.2.4.6 0 1-.2 1.4-.5l1-1v-4.3c-.3-.4-.6-.7-1-.9l-1.2-.3Z" fill="#fff"/><mask id="c" maskUnits="userSpaceOnUse" x="384.3" y="136" width="204" height="104" fill="#000"><path fill="#fff" d="M384.3 136h204v104h-204z"/><path fill-rule="evenodd" clip-rule="evenodd" d="M586.3 238h-200v-40a10 10 0 1 0 0-20v-40h200v100Z"/></mask><path fill-rule="evenodd" clip-rule="evenodd" d="M586.3 238h-200v-40a10 10 0 1 0 0-20v-40h200v100Z" fill="#171717"/><path d="M386.3 238h-2v2h2v-2Zm200 0v2h2v-2h-2Zm-200-40v-2h-2v2h2Zm0-20h-2v2h2v-2Zm0-40v-2h-2v2h2Zm200 0h2v-2h-2v2Zm-200 102h200v-4h-200v4Zm-2-42v40h4v-40h-4Zm10-10a8 8 0 0 1-8 8v4a12 12 0 0 0 12-12h-4Zm-8-8a8 8 0 0 1 8 8h4a12 12 0 0 0-12-12v4Zm-2-42v40h4v-40h-4Zm202-2h-200v4h200v-4Zm2 102V138h-4v100h4Z" fill="#2D2D2D" mask="url(#c)"/><path d="m414.8 162.3.1.8c.1.2.3.3.6.3l-.3.8c-.3 0-.6-.2-.9-.4l-.5-.8a3 3 0 0 1-1 .9c-.5.2-1 .3-1.6.3-.8 0-1.5-.3-2-.7a3 3 0 0 1-.6-2c0-.8.3-1.4 1-1.9.6-.4 1.6-.7 2.9-.7h1.2v-.8c0-.6-.2-1-.5-1.4-.4-.2-1-.4-1.6-.4l-1 .1-1.1.4-.3-.8a8.4 8.4 0 0 1 2.6-.6c1 0 1.7.3 2.2.8.5.5.8 1 .8 1.9v4.2Zm-3.4 1c.5 0 1 0 1.3-.3a3 3 0 0 0 1-.9v-2.4h-1.4c-1 0-1.7.2-2 .5-.5.4-.6.8-.6 1.4 0 .6.1 1 .4 1.3.3.3.7.5 1.3.5Z" fill="#fff"/><g opacity=".2"><rect x="407.3" y="185" width="159" height="34" rx="3" fill="#2D2D2D"/><path d="m416.8 198.5-3.5 3.5 3.5 3.5" stroke="#fff" stroke-width=".5"/><path d="M483 196.5v10.7h-1v-9.5l-2.7 1.5-.4-.7 3.2-2h.9Zm2.3 10.1v.9h-6v-.9h6Zm6.8-10.2a3.8 3.8 0 0 1 2.1.6l-.4.7a3.4 3.4 0 0 0-1.8-.5c-.6 0-1.1.2-1.6.7a4 4 0 0 0-1 1.8l-.2 2.7v.4a6 6 0 0 0 .6 3c.4.7 1 1 2 1a2 2 0 0 0 1.6-.8c.4-.5.6-1.2.6-2.2 0-.6 0-1.1-.3-1.5-.1-.3-.4-.6-.7-.8l-1.1-.2c-.7 0-1.2.2-1.7.6-.5.4-.9.9-1.1 1.5v-1.1a3 3 0 0 1 1.2-1.5 3 3 0 0 1 1.6-.4 3 3 0 0 1 1.6.4c.5.2.8.6 1.1 1 .3.6.5 1.2.5 2s-.2 1.5-.5 2.1a3 3 0 0 1-1.2 1.3c-.5.3-1 .5-1.7.5-.6 0-1.2-.2-1.6-.4-.5-.3-.8-.6-1.1-1-.3-.5-.5-1.1-.6-1.8a12.7 12.7 0 0 1 .3-5.4c.3-.9.7-1.5 1.3-2 .6-.5 1.3-.7 2.1-.7Z" fill="#fff"/><path d="m556.8 205.5 3.5-3.5-3.5-3.5" stroke="#fff" stroke-width=".5"/></g><mask id="d" maskUnits="userSpaceOnUse" x="384.3" y="236" width="204" height="104" fill="#000"><path fill="#fff" d="M384.3 236h204v104h-204z"/><path fill-rule="evenodd" clip-rule="evenodd" d="M391.3 338a5 5 0 0 1-5-5v-35a10 10 0 1 0 0-20v-40h200v95a5 5 0 0 1-5 5h-190Z"/></mask><path fill-rule="evenodd" clip-rule="evenodd" d="M391.3 338a5 5 0 0 1-5-5v-35a10 10 0 1 0 0-20v-40h200v95a5 5 0 0 1-5 5h-190Z" fill="#171717"/><path d="M386.3 298v-2h-2v2h2Zm0-20h-2v2h2v-2Zm0-40v-2h-2v2h2Zm200 0h2v-2h-2v2Zm-202 95a7 7 0 0 0 7 7v-4a3 3 0 0 1-3-3h-4Zm0-35v35h4v-35h-4Zm10-10a8 8 0 0 1-8 8v4a12 12 0 0 0 12-12h-4Zm-8-8a8 8 0 0 1 8 8h4a12 12 0 0 0-12-12v4Zm-2-42v40h4v-40h-4Zm202-2h-200v4h200v-4Zm2 97v-95h-4v95h4Zm-7 7a7 7 0 0 0 7-7h-4a3 3 0 0 1-3 3v4Zm-190 0h190v-4h-190v4Z" fill="#2D2D2D" mask="url(#d)"/><path d="M410 257.8c.4-.5.7-.8 1.1-1 .5-.2 1-.4 1.4-.4.8 0 1.4.2 1.8.6.5.4.8.9 1 1.5a7.3 7.3 0 0 1 0 4.5c-.3.7-.6 1.2-1.1 1.6a3 3 0 0 1-1.8.6 3 3 0 0 1-2.4-1.1v.9h-1v-11.8l1-.1v4.7Zm2.1 6.5a2 2 0 0 0 1.8-.9c.4-.6.7-1.4.7-2.6a6 6 0 0 0-.3-2l-.7-1.1c-.3-.3-.7-.4-1.2-.4-.6 0-1 .2-1.4.5l-1 1v4.3c.3.4.6.7 1 .9.3.2.7.3 1.1.3Z" fill="#fff"/><g opacity=".2"><rect x="407.3" y="286" width="159" height="34" rx="3" fill="#2D2D2D"/><path d="m416.8 299.5-3.5 3.5 3.5 3.5" stroke="#fff" stroke-width=".5"/><path d="M483 297.5v10.7h-1v-9.5l-2.7 1.5-.4-.7 3.2-2h.9Zm2.3 10.1v.9h-6v-.9h6Zm6.8-10.2a3.8 3.8 0 0 1 2.1.6l-.4.7a3.4 3.4 0 0 0-1.8-.5c-.6 0-1.1.2-1.6.7a4 4 0 0 0-1 1.8l-.2 2.7v.4a6 6 0 0 0 .6 3c.4.7 1 1 2 1a2 2 0 0 0 1.6-.8c.4-.5.6-1.2.6-2.2 0-.6 0-1.1-.3-1.5-.1-.3-.4-.6-.7-.8l-1.1-.2c-.7 0-1.2.2-1.7.6-.5.4-.9.9-1.1 1.5v-1.1a3 3 0 0 1 1.2-1.5 3 3 0 0 1 1.6-.4 3 3 0 0 1 1.6.4c.5.2.8.6 1.1 1 .3.6.5 1.2.5 2s-.2 1.5-.5 2.1a3 3 0 0 1-1.2 1.3c-.5.3-1 .5-1.7.5-.6 0-1.2-.2-1.6-.4-.5-.3-.8-.6-1.1-1-.3-.5-.5-1.1-.6-1.8a12.7 12.7 0 0 1 .3-5.4c.3-.9.7-1.5 1.3-2 .6-.5 1.3-.7 2.1-.7Z" fill="#fff"/><path d="m556.8 306.5 3.5-3.5-3.5-3.5" stroke="#fff" stroke-width=".5"/></g><mask id="e" maskUnits="userSpaceOnUse" x="726" y="127" width="204" height="54" fill="#000"><path fill="#fff" d="M726 127h204v54H726z"/><path d="M728 134a5 5 0 0 1 5-5h190a5 5 0 0 1 5 5v45H728v-45Z"/></mask><path d="M728 134a5 5 0 0 1 5-5h190a5 5 0 0 1 5 5v45H728v-45Z" fill="#2D2D2D"/><path d="M928 179v2h2v-2h-2Zm-200 0h-2v2h2v-2Zm5-48h190v-4H733v4Zm193 3v45h4v-45h-4Zm2 43H728v4h200v-4Zm-198 2v-45h-4v45h4Zm193-48a3 3 0 0 1 3 3h4a7 7 0 0 0-7-7v4Zm-190-4a7 7 0 0 0-7 7h4a3 3 0 0 1 3-3v-4Z" fill="#2D2D2D" mask="url(#e)"/><path d="M753.8 150.4a3.2 3.2 0 0 1 3 2c.3.7.5 1.5.5 2.4a6 6 0 0 1-.4 2.2 4 4 0 0 1-1.2 1.6c-.5.4-1.1.6-1.9.6-.8 0-1.4-.2-2-.6a4 4 0 0 1-1-1.5 6.1 6.1 0 0 1 0-4.5c.2-.7.6-1.2 1-1.6.6-.4 1.3-.6 2-.6Zm0 1a2 2 0 0 0-1.8.8c-.4.5-.6 1.4-.6 2.6 0 1.2.2 2 .6 2.6.4.6 1 .9 1.8.9s1.4-.3 1.8-.9c.4-.6.6-1.4.6-2.6 0-1.2-.2-2-.6-2.6a2 2 0 0 0-1.8-.9Zm7.5-.8v6c0 .6.2 1 .4 1.3.3.3.7.4 1.2.4a2.8 2.8 0 0 0 2.5-1.4v-6.3h1v8.4h-.8l-.1-1.2a3.5 3.5 0 0 1-2.7 1.4c-.8 0-1.4-.3-1.8-.7-.5-.4-.7-1-.7-1.8v-6.1h1Zm15 8c-.2.2-.6.3-1 .4l-1 .2c-.9 0-1.6-.3-2-.7-.5-.5-.8-1-.8-1.7v-5.4h-2v-.8h2v-2h1v2h3l-.1.8h-2.9v5.4c0 .5.2.8.4 1.1.3.3.7.4 1.4.4a3.3 3.3 0 0 0 1.6-.4l.4.7Zm6.7-8.2c.8 0 1.4.2 1.8.6.5.4.8.9 1 1.5a8 8 0 0 1-.1 4.5c-.2.7-.6 1.2-1 1.6-.5.4-1.1.6-1.9.6a3 3 0 0 1-2.3-1v4l-1 .1v-11.7h.8l.2 1.2 1-1c.5-.2 1-.4 1.5-.4Zm-.2.9c-.5 0-1 .2-1.3.5l-1 1v4.3c.3.4.6.6 1 .8.3.3.7.4 1.2.4a2 2 0 0 0 1.7-.9c.4-.6.6-1.4.6-2.6a6 6 0 0 0-.3-2c-.1-.4-.3-.8-.7-1.1-.3-.3-.7-.4-1.2-.4Zm7.3-.7v6c0 .6.1 1 .4 1.3.3.3.7.4 1.2.4s1-.1 1.5-.4l1-1v-6.3h1v8.4h-.8l-.1-1.2a3.5 3.5 0 0 1-2.7 1.4c-.9 0-1.5-.3-1.9-.7-.4-.4-.6-1-.6-1.8v-6.1h1Zm15 8c-.2.2-.6.3-1 .4l-1 .2c-1 0-1.6-.3-2-.7-.5-.5-.8-1-.8-1.7v-5.4h-2v-.8h2v-2h1v2h3l-.2.8h-2.8v5.4c0 .5.2.8.4 1.1.3.3.7.4 1.3.4a3.3 3.3 0 0 0 1.7-.4l.4.7Z" fill="#fff"/><mask id="f" maskUnits="userSpaceOnUse" x="726" y="177" width="204" height="104" fill="#000"><path fill="#fff" d="M726 177h204v104H726z"/><path fill-rule="evenodd" clip-rule="evenodd" d="M733 279a5 5 0 0 1-5-5v-35a10 10 0 1 0 0-20v-40h200v95a5 5 0 0 1-5 5H733Z"/></mask><path fill-rule="evenodd" clip-rule="evenodd" d="M733 279a5 5 0 0 1-5-5v-35a10 10 0 1 0 0-20v-40h200v95a5 5 0 0 1-5 5H733Z" fill="#171717"/><path d="M728 239v-2h-2v2h2Zm0-20h-2v2h2v-2Zm0-40v-2h-2v2h2Zm200 0h2v-2h-2v2Zm-202 95a7 7 0 0 0 7 7v-4a3 3 0 0 1-3-3h-4Zm0-35v35h4v-35h-4Zm10-10a8 8 0 0 1-8 8v4a12 12 0 0 0 12-12h-4Zm-8-8a8 8 0 0 1 8 8h4a12 12 0 0 0-12-12v4Zm-2-42v40h4v-40h-4Zm202-2H728v4h200v-4Zm2 97v-95h-4v95h4Zm-7 7a7 7 0 0 0 7-7h-4a3 3 0 0 1-3 3v4Zm-190 0h190v-4H733v4Z" fill="#2D2D2D" mask="url(#f)"/><path d="M812.8 216.7c2.3 0 4 1 5.2 3 1.2 1.9 1.8 4.7 1.8 8.3 0 3.7-.6 6.5-1.8 8.4-1.2 2-2.9 3-5.2 3-2.3 0-4-1-5.2-3-1.2-2-1.8-4.7-1.8-8.4 0-3.6.6-6.4 1.8-8.4 1.2-2 3-2.9 5.2-2.9Zm0 1.7c-1.4 0-2.5.8-3.4 2.3a15 15 0 0 0-1.3 7.3c0 1.7.1 3 .3 4.3.2 1.2.5 2.2.9 3a5 5 0 0 0 1.4 1.7 3.7 3.7 0 0 0 4.6-.4 7 7 0 0 0 1.7-3.1 27.2 27.2 0 0 0 0-10.9 6.2 6.2 0 0 0-1.5-3.2 4 4 0 0 0-2.7-1Zm3.5.8.5 2.3-7.3 14.7-.9-1.7 7.7-15.3Zm13.1 17.5a2.5 2.5 0 0 1 2.6-2.6c.5 0 1 .1 1.3.4.4.2.7.5 1 .9.2.4.3.8.3 1.3s-.1 1-.4 1.3c-.2.4-.5.7-.9 1-.4.2-.8.3-1.3.3s-1 0-1.4-.3a2.6 2.6 0 0 1-1.2-2.3Zm21.4-20a6 6 0 0 1 3.8 1.2c1 .7 1.8 1.7 2.3 3a21.2 21.2 0 0 1 .1 10.5 9.2 9.2 0 0 1-5.4 6.3c-1.4.7-3.1 1.3-5.1 1.9l-.5-1.6c2.1-.6 3.9-1.4 5.3-2.2a8.2 8.2 0 0 0 3.2-3.2c.7-1.3 1-3 1-5l.1-1.4c0-2-.2-3.4-.6-4.6-.3-1-.9-1.9-1.6-2.4a5 5 0 0 0-2.6-.7c-1.6 0-2.8.5-3.6 1.4-.8 1-1.2 2.3-1.2 4 0 1.8.4 3.1 1.2 4 .7.8 1.8 1.2 3.2 1.2 1.2 0 2.3-.4 3.1-1 .9-.8 1.7-1.7 2.4-3v2.3c-.6 1-1.4 1.8-2.3 2.4-1 .7-2 1-3.4 1a5.7 5.7 0 0 1-5.5-3.2c-.5-1-.8-2.3-.8-3.8 0-1.6.4-2.9 1-4 .6-1 1.4-1.7 2.5-2.3 1-.5 2.1-.7 3.4-.7Z" fill="#fff"/><mask id="g" maskUnits="userSpaceOnUse" x="42.5" y="269" width="204" height="54" fill="#000"><path fill="#fff" d="M42.5 269h204v54h-204z"/><path fill-rule="evenodd" clip-rule="evenodd" d="M49.5 271a5 5 0 0 0-5 5v45h200v-15a10 10 0 1 1 0-20v-10a5 5 0 0 0-5-5h-190Z"/></mask><path fill-rule="evenodd" clip-rule="evenodd" d="M49.5 271a5 5 0 0 0-5 5v45h200v-15a10 10 0 1 1 0-20v-10a5 5 0 0 0-5-5h-190Z" fill="#2D2D2D"/><path d="M44.5 321h-2v2h2v-2Zm200 0v2h2v-2h-2Zm0-15h2v-2h-2v2Zm0-20v2h2v-2h-2Zm-198-10a3 3 0 0 1 3-3v-4a7 7 0 0 0-7 7h4Zm0 45v-45h-4v45h4Zm198-2h-200v4h200v-4Zm-2-13v15h4v-15h-4Zm2-2a8 8 0 0 1-8-8h-4a12 12 0 0 0 12 12v-4Zm-8-8a8 8 0 0 1 8-8v-4a12 12 0 0 0-12 12h4Zm6-20v10h4v-10h-4Zm-3-3a3 3 0 0 1 3 3h4a7 7 0 0 0-7-7v4Zm-190 0h190v-4h-190v4Z" fill="#2D2D2D" mask="url(#g)"/><path d="M72.1 289a5.1 5.1 0 0 1 2.1.5l-.4.8-.8-.3h-1c-.6 0-1 0-1.4.3-.3.2-.4.6-.4 1.1v1.9H73v.8h-2.8v6.9h-1v-6.9H67v-.8h2v-1.8c0-.5.2-1 .5-1.3.2-.4.6-.7 1-.8l1.5-.3Zm7.7.2v9.9c0 .4.1.7.4 1l1 .2h.8l.7-.3.3.8-.8.2-1 .2c-.7 0-1.3-.2-1.7-.6-.5-.3-.7-.8-.7-1.5v-9h-2.6v-.9h3.6Zm9.7 3.2a3.2 3.2 0 0 1 3 2c.3.7.5 1.5.5 2.4a6 6 0 0 1-.4 2.2 4 4 0 0 1-1.2 1.6 3 3 0 0 1-2 .6c-.7 0-1.3-.2-1.8-.6-.6-.4-1-.9-1.2-1.5-.3-.7-.4-1.4-.4-2.3 0-.8.1-1.6.4-2.3.3-.6.7-1.1 1.2-1.5a3 3 0 0 1 2-.6Zm0 1a2 2 0 0 0-1.8.8c-.4.5-.6 1.4-.6 2.6 0 1.2.2 2 .6 2.6.4.6 1 .9 1.8.9s1.4-.3 1.8-.9c.4-.6.6-1.4.6-2.6 0-1.2-.2-2-.6-2.6a2 2 0 0 0-1.8-.9Zm12.2 6 .2.7c.1.2.3.3.6.3l-.3.8c-.3 0-.6-.2-.9-.4l-.5-.8a3 3 0 0 1-1.1.9c-.4.2-1 .3-1.5.3-.8 0-1.5-.3-2-.7a3 3 0 0 1-.7-2c0-.8.4-1.4 1-1.9a6 6 0 0 1 3-.7h1.2v-.8c0-.6-.2-1.1-.6-1.4-.3-.2-.8-.4-1.5-.4l-1 .1-1.2.4-.2-.8a8.4 8.4 0 0 1 2.5-.6c1 0 1.8.3 2.3.8.5.5.7 1 .7 1.9v4.2Zm-3.3 1a2 2 0 0 0 1.3-.4 3 3 0 0 0 1-.9v-2.4h-1.4c-1 0-1.7.2-2 .5-.5.4-.7.8-.7 1.4 0 .6.2 1 .5 1.3.3.3.7.5 1.3.5Zm13.6.2c-.2.2-.6.3-1 .4l-1 .2c-1 0-1.6-.3-2-.7-.5-.5-.8-1-.8-1.7v-5.4h-2v-.8h2v-2h1v2h3l-.1.8h-2.9v5.4c0 .5.2.8.4 1.1.3.3.7.4 1.4.4a3.3 3.3 0 0 0 1.6-.4l.4.7Z" fill="#fff"/><mask id="h" maskUnits="userSpaceOnUse" x="42.5" y="319" width="204" height="104" fill="#000"><path fill="#fff" d="M42.5 319h204v104h-204z"/><path fill-rule="evenodd" clip-rule="evenodd" d="M49.5 421a5 5 0 0 1-5-5v-35a10 10 0 1 0 0-20v-40h200v95a5 5 0 0 1-5 5h-190Z"/></mask><path fill-rule="evenodd" clip-rule="evenodd" d="M49.5 421a5 5 0 0 1-5-5v-35a10 10 0 1 0 0-20v-40h200v95a5 5 0 0 1-5 5h-190Z" fill="#171717"/><path d="M44.5 381v-2h-2v2h2Zm0-20h-2v2h2v-2Zm0-40v-2h-2v2h2Zm200 0h2v-2h-2v2Zm-202 95a7 7 0 0 0 7 7v-4a3 3 0 0 1-3-3h-4Zm0-35v35h4v-35h-4Zm10-10a8 8 0 0 1-8 8v4a12 12 0 0 0 12-12h-4Zm-8-8a8 8 0 0 1 8 8h4a12 12 0 0 0-12-12v4Zm-2-42v40h4v-40h-4Zm202-2h-200v4h200v-4Zm2 97v-95h-4v95h4Zm-7 7a7 7 0 0 0 7-7h-4a3 3 0 0 1-3 3v4Zm-190 0h190v-4h-190v4Z" fill="#2D2D2D" mask="url(#h)"/><path d="m74 338.6-3.1 8.4h-1.2l-3-8.4h1l2.6 7.4 2.6-7.4h1Zm8.5 6.7.2.8c.1.2.3.3.6.3l-.3.8c-.3 0-.6-.2-.9-.4l-.5-.8a3 3 0 0 1-1 .9c-.5.2-1 .3-1.6.3-.8 0-1.5-.3-2-.7a3 3 0 0 1-.7-2c0-.8.4-1.4 1-1.9a6 6 0 0 1 3-.7h1.2v-.8c0-.6-.2-1.1-.6-1.4-.3-.2-.8-.4-1.5-.4l-1 .1-1.1.4-.3-.8a8.4 8.4 0 0 1 2.6-.6c1 0 1.7.3 2.2.8.5.5.7 1 .7 1.9v4.2Zm-3.3 1c.5 0 .9 0 1.3-.3a3 3 0 0 0 1-.9v-2.4h-1.4c-1 0-1.7.2-2 .5-.5.4-.7.8-.7 1.4 0 .6.2 1 .5 1.3.3.3.7.5 1.3.5Zm10.2-11.1v9.9c0 .4.1.7.4 1l1 .2h.8l.7-.3.3.8-.8.2-1 .2c-.7 0-1.3-.2-1.7-.6-.5-.3-.7-.8-.7-1.5v-9h-2.6v-.9h3.6Zm7.6 3.4v6c0 .6.2 1 .4 1.3.3.3.7.4 1.2.4s1-.1 1.5-.4l1-1v-6.3h1v8.4h-.8l-.1-1.2a3.5 3.5 0 0 1-2.7 1.4c-.8 0-1.5-.3-1.9-.7-.4-.4-.6-1-.6-1.8v-6.1h1Zm9.3 4.6c0 .7.2 1.3.4 1.7.3.5.6.8 1 1l1.2.3 1.2-.1a5 5 0 0 0 1.1-.6l.5.7a4.5 4.5 0 0 1-2.7 1c-.8 0-1.5-.2-2-.6-.6-.3-1-.9-1.3-1.5-.3-.7-.4-1.4-.4-2.3 0-.8.1-1.6.4-2.3.3-.6.7-1.1 1.3-1.5.5-.4 1.1-.6 1.8-.6a3 3 0 0 1 1.8.5c.5.4.8.8 1 1.5a5.4 5.4 0 0 1 .5 2.5v.3h-5.8Zm2.6-3.8c-.7 0-1.3.2-1.8.7-.4.5-.7 1.2-.7 2.2h4.7c0-1-.2-1.7-.6-2.2a2 2 0 0 0-1.6-.7Z" fill="#fff"/><rect x="65.5" y="368" width="159" height="34" rx="3" fill="#2D2D2D"/><path d="M135.4 379.4c1.2 0 2 .4 2.6 1.4.6 1 .9 2.4.9 4.2 0 1.8-.3 3.2-.9 4.2-.6 1-1.4 1.5-2.6 1.5-1.1 0-2-.5-2.6-1.5-.6-1-.9-2.4-.9-4.2 0-1.8.3-3.2 1-4.2.5-1 1.4-1.4 2.5-1.4Zm0 .8c-.7 0-1.3.4-1.7 1.1a13.8 13.8 0 0 0-.5 5.8l.4 1.5.8 1 1 .2c.5 0 1-.2 1.3-.5.3-.3.6-.9.8-1.6.2-.7.3-1.6.3-2.7s-.1-2-.3-2.7a3 3 0 0 0-.8-1.6c-.3-.3-.8-.5-1.3-.5Zm1.7.4.3 1.1-3.7 7.4-.4-.9 3.8-7.6Zm6.6 8.7a1.3 1.3 0 0 1 1.3-1.2l.7.1.4.5.2.6c0 .3 0 .5-.2.7 0 .2-.2.4-.4.5l-.7.2-.7-.2a1.3 1.3 0 0 1-.6-1.2Zm11.4-10a3.8 3.8 0 0 1 2.1.7l-.4.7a3.4 3.4 0 0 0-1.8-.5c-.6 0-1.1.2-1.6.7a4 4 0 0 0-1 1.8l-.2 2.7v.4a6 6 0 0 0 .6 3c.4.7 1 1 2 1a2 2 0 0 0 1.6-.8c.4-.5.6-1.2.6-2.2 0-.6 0-1.1-.3-1.5-.1-.3-.4-.6-.7-.8l-1.1-.2c-.7 0-1.3.2-1.7.6-.5.4-.9.9-1.1 1.5v-1.1a3 3 0 0 1 1.2-1.5 3 3 0 0 1 1.6-.4 3 3 0 0 1 1.6.4c.5.2.8.6 1.1 1 .3.6.5 1.2.5 2s-.2 1.5-.5 2.1a3 3 0 0 1-1.2 1.3c-.5.3-1 .5-1.7.5-.6 0-1.2-.2-1.6-.4-.5-.3-.8-.6-1.1-1-.3-.5-.5-1.1-.6-1.8a12.7 12.7 0 0 1 .3-5.4c.3-.9.7-1.5 1.3-2a3 3 0 0 1 2-.7Z" fill="#fff"/><path opacity=".2" d="M65.5 371a3 3 0 0 1 3-3h101v34h-101a3 3 0 0 1-3-3v-28Z" fill="#D9D9D9"/><mask id="i" maskUnits="userSpaceOnUse" x="42.5" y="59" width="204" height="54" fill="#000"><path fill="#fff" d="M42.5 59h204v54h-204z"/><path fill-rule="evenodd" clip-rule="evenodd" d="M49.5 61a5 5 0 0 0-5 5v45h200V96a10 10 0 1 1 0-20V66a5 5 0 0 0-5-5h-190Z"/></mask><path fill-rule="evenodd" clip-rule="evenodd" d="M49.5 61a5 5 0 0 0-5 5v45h200V96a10 10 0 1 1 0-20V66a5 5 0 0 0-5-5h-190Z" fill="#2D2D2D"/><path d="M44.5 111h-2v2h2v-2Zm200 0v2h2v-2h-2Zm0-15h2v-2h-2v2Zm0-20v2h2v-2h-2Zm-198-10a3 3 0 0 1 3-3v-4a7 7 0 0 0-7 7h4Zm0 45V66h-4v45h4Zm198-2h-200v4h200v-4Zm-2-13v15h4V96h-4Zm2-2a8 8 0 0 1-8-8h-4a12 12 0 0 0 12 12v-4Zm-8-8a8 8 0 0 1 8-8v-4a12 12 0 0 0-12 12h4Zm6-20v10h4V66h-4Zm-3-3a3 3 0 0 1 3 3h4a7 7 0 0 0-7-7v4Zm-190 0h190v-4h-190v4Z" fill="#2D2D2D" mask="url(#i)"/><path d="M72.1 79a5.1 5.1 0 0 1 2.1.5l-.4.8-.8-.3h-1c-.6 0-1 0-1.4.3-.3.2-.4.6-.4 1.1v1.9H73v.8h-2.8V91h-1v-6.9H67v-.8h2v-1.8c0-.5.2-1 .5-1.3.2-.4.6-.7 1-.8l1.5-.3Zm7.7.2v9.9c0 .4.1.7.4 1l1 .2h.8l.7-.3.3.8-.8.2-1 .2c-.7 0-1.3-.2-1.7-.6-.5-.3-.7-.8-.7-1.5v-9h-2.6v-.9h3.6Zm9.7 3.2a3.2 3.2 0 0 1 3 2c.3.7.5 1.5.5 2.4a6 6 0 0 1-.4 2.2 4 4 0 0 1-1.2 1.6 3 3 0 0 1-2 .6c-.7 0-1.3-.2-1.8-.6-.6-.4-1-.9-1.2-1.5-.3-.7-.4-1.4-.4-2.3 0-.8.1-1.6.4-2.3.3-.6.7-1.1 1.2-1.5a3 3 0 0 1 2-.6Zm0 1a2 2 0 0 0-1.8.8c-.4.5-.6 1.4-.6 2.6 0 1.2.2 2 .6 2.6.4.6 1 .9 1.8.9s1.4-.3 1.8-.9c.4-.6.6-1.4.6-2.6 0-1.2-.2-2-.6-2.6a2 2 0 0 0-1.8-.9Zm12.2 6 .2.7c.1.2.3.3.6.3l-.3.8c-.3 0-.6-.2-.9-.4l-.5-.8a3 3 0 0 1-1.1.9c-.4.2-1 .3-1.5.3-.8 0-1.5-.3-2-.7a3 3 0 0 1-.7-2c0-.8.4-1.4 1-1.9a6 6 0 0 1 3-.7h1.2v-.8c0-.6-.2-1-.6-1.4-.3-.2-.8-.4-1.5-.4l-1 .1-1.2.4-.2-.8a8.4 8.4 0 0 1 2.5-.6c1 0 1.8.3 2.3.8.5.5.7 1 .7 1.9v4.2Zm-3.3 1a2 2 0 0 0 1.3-.4 3 3 0 0 0 1-.9v-2.4h-1.4c-1 0-1.7.2-2 .5-.5.4-.7.8-.7 1.4 0 .6.2 1 .5 1.3.3.3.7.5 1.3.5Zm13.6.2c-.2.2-.6.3-1 .4l-1 .2c-1 0-1.6-.3-2-.7-.5-.5-.8-1-.8-1.7v-5.4h-2v-.8h2v-2h1v2h3l-.1.8h-2.9v5.4c0 .5.2.8.4 1.1.3.3.7.4 1.4.4a3.3 3.3 0 0 0 1.6-.4l.4.7Z" fill="#fff"/><mask id="j" maskUnits="userSpaceOnUse" x="42.5" y="109" width="204" height="104" fill="#000"><path fill="#fff" d="M42.5 109h204v104h-204z"/><path fill-rule="evenodd" clip-rule="evenodd" d="M49.5 211a5 5 0 0 1-5-5v-35a10 10 0 1 0 0-20v-40h200v95a5 5 0 0 1-5 5h-190Z"/></mask><path fill-rule="evenodd" clip-rule="evenodd" d="M49.5 211a5 5 0 0 1-5-5v-35a10 10 0 1 0 0-20v-40h200v95a5 5 0 0 1-5 5h-190Z" fill="#171717"/><path d="M44.5 171v-2h-2v2h2Zm0-20h-2v2h2v-2Zm0-40v-2h-2v2h2Zm200 0h2v-2h-2v2Zm-202 95a7 7 0 0 0 7 7v-4a3 3 0 0 1-3-3h-4Zm0-35v35h4v-35h-4Zm10-10a8 8 0 0 1-8 8v4a12 12 0 0 0 12-12h-4Zm-8-8a8 8 0 0 1 8 8h4a12 12 0 0 0-12-12v4Zm-2-42v40h4v-40h-4Zm202-2h-200v4h200v-4Zm2 97v-95h-4v95h4Zm-7 7a7 7 0 0 0 7-7h-4a3 3 0 0 1-3 3v4Zm-190 0h190v-4h-190v4Z" fill="#2D2D2D" mask="url(#j)"/><path d="m74 128.6-3.1 8.4h-1.2l-3-8.4h1l2.6 7.4 2.6-7.4h1Zm8.5 6.7.2.8c.1.2.3.3.6.3l-.3.8c-.3 0-.6-.2-.9-.4l-.5-.8a3 3 0 0 1-1 .9c-.5.2-1 .3-1.6.3-.8 0-1.5-.3-2-.7a3 3 0 0 1-.7-2c0-.8.4-1.4 1-1.9a6 6 0 0 1 3-.7h1.2v-.8c0-.6-.2-1-.6-1.4-.3-.2-.8-.4-1.5-.4l-1 .1-1.1.4-.3-.8a8.4 8.4 0 0 1 2.6-.6c1 0 1.7.3 2.2.8.5.5.7 1 .7 1.9v4.2Zm-3.3 1c.5 0 .9 0 1.3-.3a3 3 0 0 0 1-.9v-2.4h-1.4c-1 0-1.7.2-2 .5-.5.4-.7.8-.7 1.4 0 .6.2 1 .5 1.3.3.3.7.5 1.3.5Zm10.2-11.1v9.9c0 .4.1.7.4 1l1 .2h.8l.7-.3.3.8-.8.2-1 .2c-.7 0-1.3-.2-1.7-.6-.5-.3-.7-.8-.7-1.5v-9h-2.6v-.9h3.6Zm7.6 3.4v6c0 .6.2 1 .4 1.3.3.3.7.4 1.2.4s1-.1 1.5-.4l1-1v-6.3h1v8.4h-.8l-.1-1.2a3.5 3.5 0 0 1-2.7 1.4c-.8 0-1.5-.3-1.9-.7-.4-.4-.6-1-.6-1.8v-6.1h1Zm9.3 4.6c0 .7.2 1.3.4 1.7.3.5.6.8 1 1l1.2.3 1.2-.1a5 5 0 0 0 1.1-.6l.5.7a4.5 4.5 0 0 1-2.7 1c-.8 0-1.5-.2-2-.6-.6-.3-1-.9-1.3-1.5-.3-.7-.4-1.4-.4-2.3 0-.8.1-1.6.4-2.3.3-.6.7-1.1 1.3-1.5.5-.4 1.1-.6 1.8-.6a3 3 0 0 1 1.8.5c.5.4.8.8 1 1.5a5.4 5.4 0 0 1 .5 2.5v.3h-5.8Zm2.6-3.8c-.7 0-1.3.2-1.8.7-.4.5-.7 1.2-.7 2.2h4.7c0-1-.2-1.7-.6-2.2a2 2 0 0 0-1.6-.7Z" fill="#fff"/><rect x="65.5" y="158" width="159" height="34" rx="3" fill="#2D2D2D"/><path d="M135.4 169.4c1.2 0 2 .4 2.6 1.4.6 1 .9 2.4.9 4.2 0 1.8-.3 3.2-.9 4.2-.6 1-1.4 1.5-2.6 1.5-1.1 0-2-.5-2.6-1.5-.6-1-.9-2.4-.9-4.2 0-1.8.3-3.2 1-4.2.5-1 1.4-1.4 2.5-1.4Zm0 .8c-.7 0-1.3.4-1.7 1.1a13.8 13.8 0 0 0-.5 5.8l.4 1.5.8 1 1 .2c.5 0 1-.2 1.3-.5.3-.3.6-.9.8-1.6.2-.7.3-1.6.3-2.7s-.1-2-.3-2.7a3 3 0 0 0-.8-1.6c-.3-.3-.8-.5-1.3-.5Zm1.7.4.3 1.1-3.7 7.4-.4-.9 3.8-7.6Zm6.6 8.7a1.3 1.3 0 0 1 1.3-1.2l.7.1.4.5.2.6c0 .3 0 .5-.2.7 0 .2-.2.4-.4.5l-.7.2-.7-.2a1.3 1.3 0 0 1-.6-1.2Zm10.4-10c.6 0 1.2.2 1.7.4.5.3.9.6 1.1 1 .3.4.4.9.4 1.4 0 .4 0 .8-.3 1.2-.2.4-.4.7-.7.9-.4.2-.7.4-1 .4a2.6 2.6 0 0 1 2.4 2.7 3.2 3.2 0 0 1-1.8 3 4 4 0 0 1-1.9.4 5 5 0 0 1-1.7-.4 3 3 0 0 1-1.5-1l.7-.6c.3.4.7.6 1.2.8.4.2.9.3 1.3.3.9 0 1.5-.2 2-.7.4-.4.6-1 .6-1.7 0-.6 0-1-.3-1.4l-.8-.7-1.3-.2h-.9l.2-.8h.6c.4 0 .7 0 1-.2.4-.2.7-.4.9-.7.2-.3.3-.7.3-1.2 0-.6-.2-1.2-.6-1.5a3 3 0 0 0-2.8-.3l-1.2.8-.6-.6a4.2 4.2 0 0 1 3-1.2Z" fill="#fff"/><path opacity=".2" d="M65.5 161a3 3 0 0 1 3-3h45v34h-45a3 3 0 0 1-3-3v-28Z" fill="#D9D9D9"/><path d="M381 188a5 5 0 1 0 10 0 5 5 0 0 0-10 0ZM240 86a5 5 0 1 0 10 0 5 5 0 0 0-10 0Zm146 101c-32.7 0-49.8-25-67.8-50.5S281.4 85 245 85v2c35.3 0 53.6 25 71.6 50.5 18 25.4 35.6 51.4 69.4 51.4v-1.8Zm337 42a5 5 0 1 0 10 0 5 5 0 0 0-10 0ZM581 113a5 5 0 1 0 10 0 5 5 0 0 0-10 0Zm147 115a54 54 0 0 1-39.6-17.8c-10.8-10.8-19.6-25.2-28.7-39.7-9-14.5-18.3-29-29.8-40A61.5 61.5 0 0 0 586 112v2c17.7 0 31.2 7 42.6 17.8a201 201 0 0 1 29.5 39.7c9 14.5 18 29 29 40A56 56 0 0 0 728 230v-1.8Zm-347 60a5 5 0 1 1 10 0 5 5 0 0 1-10 0Zm-141 8a5 5 0 1 1 10 0 5 5 0 0 1-10 0Zm146-7c-33.2 0-50.5 2-68.5 4s-36.6 4-72.5 4v-2c35.8 0 54.4-2 72.3-4 18-2 35.4-4 68.7-4v2Z" fill="#2D2D2D"/><path opacity=".2" d="m398.8 81 8.5-17.5-1-.5-8.5 17.5 1 .5ZM411 67.2h1.3v4l3.9-1.2.3 1.2-3.8 1.2 2.4 3.3-1 .7-2.4-3.3-2.4 3.3-1-.7 2.4-3.3-3.9-1.2.4-1.2 3.9 1.3v-4.1Zm28.4 1.2c.3 0 .6 0 .9.2.3.2.5.4.7.8.3.4.4 1 .4 1.9V79h-1.2v-7.5a7 7 0 0 0-.2-1.6c0-.3-.3-.5-.7-.5a2 2 0 0 0-1 .3c-.4.3-.8.6-1 1.1V79h-1.4v-7.5a7 7 0 0 0-.2-1.6c0-.3-.3-.5-.7-.5a2 2 0 0 0-1 .3c-.4.3-.7.6-1 1.1V79h-1.2V68.6h1V70c.3-.4.6-.8 1-1a2 2 0 0 1 1.3-.5l1.2.3c.4.2.6.6.8 1.1l1-1c.3-.2.7-.4 1.3-.4Zm12.3 8.6c0 .4 0 .7.2.9l.7.4-.3 1-1-.5c-.4-.3-.6-.6-.7-1a4.3 4.3 0 0 1-3.2 1.5 4 4 0 0 1-2.5-1 3 3 0 0 1-.9-2.3c0-1 .5-1.9 1.3-2.4.8-.6 2-.9 3.6-.9h1.5v-1c0-.8-.2-1.3-.7-1.7a3 3 0 0 0-1.9-.5c-.3 0-.7 0-1.2.2-.4 0-.9.2-1.4.4l-.4-1a10.3 10.3 0 0 1 3.2-.7c1.2 0 2.2.3 2.8 1a3 3 0 0 1 1 2.3V77Zm-4.1 1.2a3.2 3.2 0 0 0 2.8-1.6v-3h-1.7c-1.2 0-2 .3-2.6.7-.5.5-.7 1-.7 1.7 0 .8.2 1.3.5 1.7.4.3 1 .5 1.7.5Zm16.8.3a4 4 0 0 1-1.2.5l-1.4.2c-1 0-1.8-.3-2.4-.8-.6-.6-.9-1.3-.9-2.1v-6.7h-2.4v-1h2.4v-2.4l1.2-.1v2.5h3.7l-.2 1h-3.5v6.7c0 .6.2 1 .5 1.3.3.4.9.5 1.7.5a4.1 4.1 0 0 0 2-.5l.5 1Zm5.2-14.2v5.8a4.4 4.4 0 0 1 3.4-1.7c1 0 1.8.3 2.3.8.4.6.6 1.3.6 2.3V79h-1.2v-7.7c0-.7-.2-1.1-.5-1.4-.3-.3-.8-.5-1.5-.5-.5 0-.9.1-1.3.3-.4.2-.8.5-1 .8l-.8.8V79h-1.2V64.4l1.2-.1Zm12.8 13.3A1.6 1.6 0 0 1 484 76c.3 0 .6 0 .8.2.3.1.4.3.6.6l.2.8c0 .3 0 .6-.2.8-.1.3-.3.4-.6.6l-.8.2c-.3 0-.6 0-.8-.2a1.6 1.6 0 0 1-.8-1.4Zm17 1.4h-2l-1.5-7.8-1.6 7.8h-2l-2-10.4h1.4l1.5 9.6 1.9-8.3h1.7l1.8 8.3 1.5-9.6h1.3l-2 10.4Zm11.6-2c0 .4 0 .7.2.9l.7.4-.3 1-1.1-.5-.7-1a4 4 0 0 1-3.2 1.4c-1 0-1.8-.3-2.4-.9a3 3 0 0 1-.9-2.3c0-1 .4-1.9 1.3-2.4.8-.6 2-.9 3.6-.9h1.5v-1c0-.8-.2-1.3-.7-1.7a3 3 0 0 0-1.9-.5c-.3 0-.7 0-1.2.2-.4 0-.9.2-1.4.4l-.4-1a10.4 10.4 0 0 1 3.2-.7c1.2 0 2.1.3 2.8 1 .6.5.9 1.3.9 2.3V77Zm-4.1 1.2c.5 0 1-.1 1.6-.4.5-.3.9-.7 1.2-1.2v-3H508c-1.2 0-2 .3-2.6.7-.5.5-.7 1-.7 1.7 0 .8.2 1.3.5 1.7.4.3 1 .5 1.7.5Zm12.3-.1a4 4 0 0 0 2-.5c.5-.4.8-.8.8-1.4 0-.3 0-.6-.2-.9 0-.2-.3-.4-.7-.6l-1.6-.6a14 14 0 0 1-2-.6c-.5-.3-1-.5-1.2-1a2 2 0 0 1-.5-1.4c0-.5.2-1 .5-1.4a3 3 0 0 1 1.4-1c.5-.2 1.2-.3 1.9-.3a6.2 6.2 0 0 1 3.6 1.1l-.5 1-1.3-.7a5 5 0 0 0-1.8-.3c-1 0-1.5.2-2 .5-.3.2-.5.6-.5 1s.1.7.3.9l.9.6 1.7.5 1.8.7c.5.2.9.5 1.1 1 .3.3.5.9.5 1.5 0 .7-.2 1.3-.7 1.8-.4.4-.9.7-1.5 1a7 7 0 0 1-4.4-.2 6 6 0 0 1-1.5-1l.7-.9c.4.4.9.7 1.4.9.6.2 1.1.3 1.8.3Zm15-9.7c.4 0 .6 0 1 .2.3.2.5.4.7.8.2.4.3 1 .3 1.9V79H535v-7.5l-.1-1.6c0-.3-.3-.5-.8-.5a2 2 0 0 0-1 .3c-.4.3-.7.6-1 1.1V79h-1.4v-7.5a7 7 0 0 0 0-1.6c-.2-.3-.4-.5-.8-.5a2 2 0 0 0-1.1.3c-.3.3-.7.6-1 1.1V79h-1.2V68.6h1l.1 1.3c.3-.4.6-.8 1-1a2 2 0 0 1 1.3-.5l1.2.3c.3.2.6.6.8 1.1l1-1c.3-.2.7-.4 1.3-.4Zm21-1.2h1.3v4l3.8-1.2.4 1.2-3.9 1.2 2.5 3.3-1 .7-2.4-3.3-2.4 3.3-1-.7 2.4-3.3-3.9-1.2.4-1.2 3.8 1.3v-4.1Zm6.4 13.8 8.5-17.5-1-.5-8.5 17.5 1 .5ZM52.9 263l8.5-17.5-1-.5-8.5 17.5 1 .5Zm12.2-13.8h1.3v4l3.8-1.2.4 1.2-3.9 1.2 2.5 3.3-1 .7-2.4-3.3-2.4 3.3-1-.7 2.4-3.3-3.9-1.2.4-1.2 3.8 1.3v-4.1Zm27.8-3a6.4 6.4 0 0 1 2.6.6l-.5 1-1-.4h-1.2c-.8 0-1.4 0-1.7.4-.4.3-.6.7-.6 1.3v2.4H94l-.1 1h-3.4v8.5h-1.3v-8.5h-2.5v-1h2.5v-2.3c0-.6.2-1.1.5-1.6.4-.4.8-.8 1.4-1 .5-.2 1.1-.4 1.8-.4Zm9.5.2v12.2c0 .6.1 1 .5 1.2.3.2.8.3 1.3.3h1l.8-.3.4.9a5.2 5.2 0 0 1-2.3.5c-.8 0-1.5-.2-2.1-.7-.6-.4-.9-1-.9-1.9v-11.1H98v-1h4.5Zm12 4c1 0 1.7.3 2.4.7a4 4 0 0 1 1.4 1.9c.3.8.4 1.7.4 2.8 0 1-.1 2-.4 2.8-.4.8-.8 1.4-1.5 1.9-.6.5-1.4.7-2.3.7a4 4 0 0 1-2.4-.7c-.7-.4-1.1-1-1.5-1.9-.3-.8-.4-1.7-.4-2.8 0-1 .1-2 .4-2.8.4-.8.9-1.4 1.5-1.9a4 4 0 0 1 2.4-.7Zm0 1.1c-1 0-1.7.4-2.2 1-.5.8-.8 1.9-.8 3.3a6 6 0 0 0 .8 3.3c.4.7 1.2 1 2.2 1 1 0 1.7-.3 2.2-1a6 6 0 0 0 .7-3.3c0-1.4-.2-2.5-.7-3.2-.5-.7-1.3-1-2.2-1Zm15.1 7.5c0 .4 0 .7.2.9l.7.4-.3 1-1.1-.5-.7-1a4 4 0 0 1-3.2 1.4c-1 0-1.8-.3-2.4-.9a3 3 0 0 1-.9-2.3c0-1 .4-1.9 1.3-2.4.8-.6 2-.9 3.6-.9h1.5v-1c0-.8-.2-1.3-.7-1.7a3 3 0 0 0-1.9-.5c-.3 0-.7 0-1.2.2-.4 0-.9.2-1.4.4l-.4-1a10.4 10.4 0 0 1 3.2-.7c1.2 0 2.1.3 2.8 1 .6.5.9 1.3.9 2.3v5.3Zm-4.1 1.2c.5 0 1-.1 1.6-.4.5-.3.9-.7 1.2-1.2v-3h-1.7c-1.2 0-2 .3-2.6.7-.5.5-.7 1-.7 1.7 0 .8.2 1.3.5 1.7.4.3 1 .5 1.7.5Zm16.8.3a4 4 0 0 1-1.2.5l-1.4.2c-1 0-1.8-.3-2.4-.8a3 3 0 0 1-1-2.1v-6.7h-2.4v-1h2.5v-2.4l1.2-.1v2.5h3.7l-.2 1h-3.5v6.7c0 .6.2 1 .5 1.3.3.4.9.5 1.7.5a4.1 4.1 0 0 0 2-.5l.5 1Zm6.1-1a1.6 1.6 0 0 1 1.6-1.5c.3 0 .6 0 .8.2.3.1.5.3.6.6.2.2.2.5.2.8 0 .3 0 .6-.2.8-.1.3-.3.4-.6.6l-.8.2c-.3 0-.6 0-.8-.2a1.6 1.6 0 0 1-.8-1.4Zm17 1.5h-2l-1.4-7.8-1.6 7.8h-2l-2-10.4h1.3l1.6 9.6 1.8-8.3h1.8l1.7 8.3 1.5-9.6h1.3l-2 10.4Zm11.6-2c0 .4.1.7.3.9.1.2.3.3.6.4l-.3 1-1-.5c-.4-.3-.6-.6-.7-1-.4.4-.8.8-1.4 1-.5.3-1.1.4-1.8.4-1 0-1.9-.3-2.4-.9a3 3 0 0 1-1-2.3c0-1 .5-1.9 1.3-2.4.8-.6 2-.9 3.6-.9h1.6v-1c0-.8-.3-1.3-.7-1.7-.5-.3-1.1-.5-2-.5-.3 0-.7 0-1.1.2-.5 0-1 .2-1.5.4l-.4-1a10.4 10.4 0 0 1 3.2-.7c1.3 0 2.2.3 2.8 1a3 3 0 0 1 1 2.3v5.3Zm-4 1.2c.5 0 1-.1 1.5-.4.5-.3 1-.7 1.3-1.2v-3h-1.8a4 4 0 0 0-2.5.7c-.5.5-.8 1-.8 1.7 0 .8.2 1.3.6 1.7.3.3.9.5 1.6.5Zm12.2-.1c.9 0 1.6-.2 2-.5.6-.4.8-.8.8-1.4l-.1-.9-.7-.6-1.7-.6a14 14 0 0 1-2-.6c-.5-.3-.9-.5-1.2-1-.3-.3-.4-.8-.4-1.4 0-.5.1-1 .4-1.4a3 3 0 0 1 1.4-1 6 6 0 0 1 2-.3 6.2 6.2 0 0 1 3.6 1.1l-.6 1-1.3-.7a5 5 0 0 0-1.8-.3 3 3 0 0 0-1.9.5c-.4.2-.5.6-.5 1s0 .7.2.9l1 .6 1.6.5 1.8.7c.5.2.9.5 1.2 1 .3.3.4.9.4 1.5 0 .7-.2 1.3-.6 1.8-.4.4-1 .7-1.6 1a7 7 0 0 1-4.3-.2 6 6 0 0 1-1.6-1l.8-.9c.4.4.8.7 1.4.9.5.2 1 .3 1.7.3Zm15.1-9.7c.3 0 .6 0 .9.2.3.2.5.4.7.8.3.4.4 1 .4 1.9v7.7H201v-7.5a7 7 0 0 0-.2-1.6c0-.3-.3-.5-.7-.5a2 2 0 0 0-1 .3c-.4.3-.7.6-1 1.1v8.2h-1.4v-7.5a7 7 0 0 0-.2-1.6c0-.3-.3-.5-.7-.5a2 2 0 0 0-1 .3c-.4.3-.7.6-1 1.1v8.2h-1.2v-10.4h1v1.3c.3-.4.6-.8 1-1a2 2 0 0 1 1.3-.5l1.2.3c.4.2.6.6.8 1.1l1-1c.3-.2.7-.4 1.3-.4Zm21-1.2h1.2v4l3.9-1.2.3 1.2-3.8 1.2 2.4 3.3-1 .7-2.4-3.3-2.4 3.3-1-.7 2.4-3.3-3.9-1.2.4-1.2 3.9 1.3v-4.1Zm6.4 13.8 8.5-17.5-1-.5-8.6 17.5 1 .5ZM49.9 52l8.5-17.5-1-.5-8.5 17.5 1 .5Zm12.2-13.8h1.3v4l3.8-1.2.4 1.2-3.9 1.2 2.5 3.3-1 .7-2.4-3.3-2.4 3.3-1-.7 2.4-3.3-3.9-1.2.4-1.2 3.8 1.3v-4.1Zm27.8-3a6.3 6.3 0 0 1 2.6.6l-.5 1-1-.4h-1.2c-.8 0-1.4 0-1.7.4-.4.3-.6.7-.6 1.3v2.4H91l-.1 1h-3.4V50h-1.3v-8.5h-2.5v-1h2.5v-2.3c0-.6.2-1.1.5-1.6.4-.4.8-.8 1.4-1 .5-.2 1.1-.4 1.8-.4Zm9.5.2v12.2c0 .6.1 1 .5 1.2.3.2.8.3 1.3.3h1l.8-.3.4.9a5.1 5.1 0 0 1-2.3.5c-.8 0-1.5-.2-2.1-.7-.6-.4-.9-1-.9-1.9V36.5H95v-1h4.5Zm12 4c1 0 1.7.2 2.4.7a4 4 0 0 1 1.4 1.9c.3.8.4 1.7.4 2.8 0 1-.1 2-.4 2.8-.4.8-.8 1.4-1.5 1.9-.6.5-1.4.7-2.3.7a4 4 0 0 1-2.4-.7c-.7-.4-1.1-1-1.5-1.9-.3-.8-.4-1.7-.4-2.8 0-1 .1-2 .4-2.8.4-.8.9-1.4 1.5-1.9a4 4 0 0 1 2.4-.7Zm0 1.1c-1 0-1.7.4-2.2 1-.5.8-.8 1.9-.8 3.3a6 6 0 0 0 .8 3.3c.4.7 1.2 1 2.2 1 1 0 1.7-.3 2.2-1a6 6 0 0 0 .7-3.3c0-1.4-.2-2.5-.7-3.2-.5-.7-1.3-1-2.2-1Zm15.1 7.5c0 .4 0 .7.2.9l.7.4-.3 1-1.1-.5-.7-1a4 4 0 0 1-3.2 1.4c-1 0-1.8-.3-2.4-.9a3 3 0 0 1-.9-2.3c0-1 .4-1.9 1.3-2.4.8-.6 2-.9 3.6-.9h1.5v-1c0-.8-.2-1.3-.7-1.7a3 3 0 0 0-1.9-.5c-.3 0-.7 0-1.2.2-.4 0-.9.2-1.4.4l-.4-1a10.3 10.3 0 0 1 3.2-.7c1.2 0 2.1.3 2.8 1 .6.5.9 1.3.9 2.3V48Zm-4.1 1.2c.5 0 1-.1 1.6-.4.5-.3.9-.7 1.2-1.2v-3h-1.7c-1.2 0-2 .3-2.6.7-.5.5-.7 1-.7 1.7 0 .8.2 1.3.5 1.7.4.3 1 .5 1.7.5Zm16.8.3a4 4 0 0 1-1.2.5l-1.4.2c-1 0-1.8-.3-2.4-.8a3 3 0 0 1-1-2.1v-6.7h-2.4v-1h2.5v-2.4l1.2-.1v2.5h3.7l-.2 1h-3.5v6.7c0 .6.2 1 .5 1.3.3.4.9.5 1.7.5a4.1 4.1 0 0 0 2-.5l.5 1Zm6.1-1A1.6 1.6 0 0 1 147 47c.3 0 .6 0 .8.2.3.1.5.3.6.6.2.2.2.5.2.8 0 .3 0 .6-.2.8-.1.3-.3.4-.6.6l-.8.2c-.3 0-.6 0-.8-.2a1.6 1.6 0 0 1-.8-1.4Zm17 1.5h-2l-1.4-7.8-1.6 7.8h-2l-2-10.4h1.3l1.6 9.6L158 41h1.8l1.7 8.3 1.5-9.6h1.3l-2 10.4Zm11.6-2c0 .4.1.7.3.9.1.2.3.3.6.4l-.3 1-1-.5c-.4-.3-.6-.6-.7-1-.4.4-.8.8-1.4 1-.5.3-1.1.4-1.8.4-1 0-1.9-.3-2.4-.9a3 3 0 0 1-1-2.3c0-1 .5-1.9 1.3-2.4.8-.6 2-.9 3.6-.9h1.6v-1c0-.8-.3-1.3-.7-1.7-.5-.3-1.1-.5-2-.5-.3 0-.7 0-1.1.2-.5 0-1 .2-1.5.4l-.4-1a10.3 10.3 0 0 1 3.2-.7c1.3 0 2.2.3 2.8 1a3 3 0 0 1 1 2.3V48Zm-4 1.2c.5 0 1-.1 1.5-.4.5-.3 1-.7 1.3-1.2v-3h-1.8a4 4 0 0 0-2.5.7c-.5.5-.8 1-.8 1.7 0 .8.2 1.3.6 1.7.3.3.9.5 1.6.5Zm12.2-.1c.9 0 1.6-.2 2-.5.6-.4.8-.8.8-1.4l-.1-.9-.7-.6-1.7-.6a14 14 0 0 1-2-.6c-.5-.3-.9-.5-1.2-1-.3-.3-.4-.8-.4-1.4 0-.5.1-1 .4-1.4a3 3 0 0 1 1.4-1 6 6 0 0 1 2-.3 6.2 6.2 0 0 1 3.6 1.1l-.6 1-1.3-.7a5 5 0 0 0-1.8-.3 3 3 0 0 0-1.9.5c-.4.2-.5.6-.5 1s0 .7.2.9l1 .6 1.6.5 1.8.7c.5.2.9.5 1.2 1 .3.3.4.9.4 1.5 0 .7-.2 1.3-.6 1.8-.4.4-1 .7-1.6 1a7 7 0 0 1-4.3-.2 6 6 0 0 1-1.6-1l.8-.9c.4.4.8.7 1.4.9.5.2 1 .3 1.7.3Zm15.1-9.7c.3 0 .6 0 .9.2.3.2.5.4.7.8.3.4.4 1 .4 1.9V50H198v-7.5a7 7 0 0 0-.2-1.6c0-.3-.3-.5-.7-.5a2 2 0 0 0-1 .3c-.4.3-.7.6-1 1.1V50h-1.4v-7.5a7 7 0 0 0-.2-1.6c0-.3-.3-.5-.7-.5a2 2 0 0 0-1 .3c-.4.3-.7.6-1 1.1V50h-1.2V39.6h1V41c.3-.4.6-.8 1-1a2 2 0 0 1 1.3-.5l1.2.3c.4.2.6.6.8 1.1l1-1c.3-.2.7-.4 1.3-.4Zm21-1.2h1.2v4l3.9-1.2.3 1.2-3.8 1.2 2.4 3.3-1 .7-2.4-3.3-2.4 3.3-1-.7 2.4-3.3-3.9-1.2.4-1.2 3.9 1.3v-4.1Zm6.4 13.8 8.5-17.5-1-.5-8.6 17.5 1 .5Z" fill="#fff"/></g><rect x=".5" y=".5" width="972" height="456" rx="19.5" stroke="#2D2D2D"/><defs><clipPath id="a"><rect width="973" height="457" rx="20" fill="#fff"/></clipPath></defs></svg>